<?xml version="1.0" encoding="utf-8"?>
<!-- Svg Vector Icons : http://www.onlinewebfonts.com/icon -->
<!DOCTYPE svg PUBLIC "-//W3C//DTD SVG 1.1//EN" "http://www.w3.org/Graphics/SVG/1.1/DTD/svg11.dtd">
<svg version="1.1" xmlns="http://www.w3.org/2000/svg" xmlns:xlink="http://www.w3.org/1999/xlink" x="0px" y="0px" viewBox="0 0 1000 1000" enable-background="new 0 0 1000 1000" xml:space="preserve">
<metadata> Svg Vector Icons : http://www.onlinewebfonts.com/icon </metadata>
<g><g transform="translate(0.000000,511.000000) scale(0.100000,-0.100000)"><path d="M4407.2,4999.7C2398.4,4747.2,730.2,3285.2,239,1352.9c-118.2-468-139-658-139-1239.6c0-595.5,18.5-762.3,148.3-1265c442.5-1716.8,1842-3088.5,3579.6-3510.1c1689-407.8,3452.2,90.4,4664,1318.3c727.5,736.8,1179.3,1631.1,1364.7,2690c57.9,326.7,57.9,1197.8,0,1540.7c-368.4,2180.2-2050.5,3811.3-4233,4105.6C5357.1,5027.5,4666.7,5032.1,4407.2,4999.7z M5644.4,4689.2c1876.7-266.4,3419.8-1675.1,3850.7-3510.1c155.2-660.3,152.9-1471.2-2.3-2143.1c-387-1658.9-1758.6-3030.5-3417.5-3417.5c-671.9-155.2-1482.8-157.5-2143.2-2.3C2231.6-3985.3,871.5-2606.7,493.9-903.8c-92.7,426.3-113.5,674.2-99.6,1174.7c13.9,523.6,69.5,843.4,227.1,1313.7C1168.1,3227.3,2616.2,4436.7,4333,4686.9C4627.3,4730.9,5345.5,4730.9,5644.4,4689.2z"/><path d="M4828.8,2696.7c-702-132.1-1339.2-625.6-1635.7-1265c-139-296.6-192.3-532.9-203.9-912.9l-11.6-347.5l-231.7-447.2c-257.2-495.8-280.3-590.8-190-748.4c55.6-95,215.5-183,338.3-183h88v-361.4c0-419.4,18.5-505.1,146-648.7c185.4-208.5,296.6-231.7,790.1-157.5c658,99.6,1573.2,266.4,1656.6,301.2c132.1,55.6,220.1,134.4,292,266.4l69.5,125.1l11.6,611.7l11.6,611.7l97.3,27.8c241,71.8,449.5,259.5,570,516.7c64.9,136.7,71.9,178.4,71.9,352.2c-4.7,525.9-387,910.5-901.3,910.5c-773.9,0-1190.9-880.4-706.7-1489.8c90.4-113.5,282.6-240.9,428.6-285l115.8-32.4l6.9-560.7c7-611.7-4.6-676.5-125.1-755.3c-53.3-34.7-1107.5-231.7-1740-324.4c-289.6-41.7-347.5-30.1-444.8,95c-46.3,57.9-48.7,90.3-48.7,523.6c0,458.7,0,461.1-57.9,516.7c-48.7,51-76.5,57.9-215.5,57.9c-115.8,0-169.1,9.3-190,34.8c-30.1,37.1-11.6,78.8,326.7,720.6l136.7,257.2v310.5c0,620.9,192.3,1079.7,620.9,1485.1c954.6,899,2509.2,611.7,3086.2-572.3c356.8-734.5,224.7-1568.6-349.9-2201.1L6504-1022v-695.1c0-665,2.3-697.4,46.3-741.4c60.2-60.2,148.3-60.2,208.5,0c44,44,46.3,76.5,46.3,685.8v639.5l118.2,129.7C7173.6-723.1,7370.5-320,7444.6,62.3c41.7,217.8,41.7,625.6,0,843.4c-104.3,535.2-414.7,1040.3-845.7,1367c-199.2,150.6-567.6,329-813.2,391.6C5530.9,2729.1,5083.7,2745.3,4828.8,2696.7z M5991.9,1026.2c166.8-48.7,326.7-208.5,384.6-377.7c132-398.5-155.3-810.9-565.4-813.3c-176.1,0-289.6,39.4-412.4,148.3c-285,250.2-287.3,683.5-6.9,924.4C5565.6,1056.3,5760.2,1095.7,5991.9,1026.2z"/></g></g>
</svg>