<?xml version="1.0" encoding="UTF-8"?>
<!DOCTYPE svg PUBLIC "-//W3C//DTD SVG 1.1//EN" "http://www.w3.org/Graphics/SVG/1.1/DTD/svg11.dtd">
<svg version="1.2" width="262.38mm" height="262.38mm" viewBox="0 0 26238 26238" preserveAspectRatio="xMidYMid" fill-rule="evenodd" stroke-width="28.222" stroke-linejoin="round" xmlns="http://www.w3.org/2000/svg" xmlns:ooo="http://xml.openoffice.org/svg/export" xmlns:xlink="http://www.w3.org/1999/xlink" xmlns:presentation="http://sun.com/xmlns/staroffice/presentation" xmlns:smil="http://www.w3.org/2001/SMIL20/" xmlns:anim="urn:oasis:names:tc:opendocument:xmlns:animation:1.0" xml:space="preserve">
 <defs class="ClipPathGroup">
  <clipPath id="presentation_clip_path" clipPathUnits="userSpaceOnUse">
   <rect x="0" y="0" width="26238" height="26238"/>
  </clipPath>
  <clipPath id="presentation_clip_path_shrink" clipPathUnits="userSpaceOnUse">
   <rect x="26" y="26" width="26186" height="26186"/>
  </clipPath>
 </defs>
 <defs class="TextShapeIndex">
  <g ooo:slide="id1" ooo:id-list="id3 id4"/>
 </defs>
 <defs class="EmbeddedBulletChars">
  <g id="bullet-char-template-57356" transform="scale(0.00048828125,-0.00048828125)">
   <path d="M 580,1141 L 1163,571 580,0 -4,571 580,1141 Z"/>
  </g>
  <g id="bullet-char-template-57354" transform="scale(0.00048828125,-0.00048828125)">
   <path d="M 8,1128 L 1137,1128 1137,0 8,0 8,1128 Z"/>
  </g>
  <g id="bullet-char-template-10146" transform="scale(0.00048828125,-0.00048828125)">
   <path d="M 174,0 L 602,739 174,1481 1456,739 174,0 Z M 1358,739 L 309,1346 659,739 1358,739 Z"/>
  </g>
  <g id="bullet-char-template-10132" transform="scale(0.00048828125,-0.00048828125)">
   <path d="M 2015,739 L 1276,0 717,0 1260,543 174,543 174,936 1260,936 717,1481 1274,1481 2015,739 Z"/>
  </g>
  <g id="bullet-char-template-10007" transform="scale(0.00048828125,-0.00048828125)">
   <path d="M 0,-2 C -7,14 -16,27 -25,37 L 356,567 C 262,823 215,952 215,954 215,979 228,992 255,992 264,992 276,990 289,987 310,991 331,999 354,1012 L 381,999 492,748 772,1049 836,1024 860,1049 C 881,1039 901,1025 922,1006 886,937 835,863 770,784 769,783 710,716 594,584 L 774,223 C 774,196 753,168 711,139 L 727,119 C 717,90 699,76 672,76 641,76 570,178 457,381 L 164,-76 C 142,-110 111,-127 72,-127 30,-127 9,-110 8,-76 1,-67 -2,-52 -2,-32 -2,-23 -1,-13 0,-2 Z"/>
  </g>
  <g id="bullet-char-template-10004" transform="scale(0.00048828125,-0.00048828125)">
   <path d="M 285,-33 C 182,-33 111,30 74,156 52,228 41,333 41,471 41,549 55,616 82,672 116,743 169,778 240,778 293,778 328,747 346,684 L 369,508 C 377,444 397,411 428,410 L 1163,1116 C 1174,1127 1196,1133 1229,1133 1271,1133 1292,1118 1292,1087 L 1292,965 C 1292,929 1282,901 1262,881 L 442,47 C 390,-6 338,-33 285,-33 Z"/>
  </g>
  <g id="bullet-char-template-9679" transform="scale(0.00048828125,-0.00048828125)">
   <path d="M 813,0 C 632,0 489,54 383,161 276,268 223,411 223,592 223,773 276,916 383,1023 489,1130 632,1184 813,1184 992,1184 1136,1130 1245,1023 1353,916 1407,772 1407,592 1407,412 1353,268 1245,161 1136,54 992,0 813,0 Z"/>
  </g>
  <g id="bullet-char-template-8226" transform="scale(0.00048828125,-0.00048828125)">
   <path d="M 346,457 C 273,457 209,483 155,535 101,586 74,649 74,723 74,796 101,859 155,911 209,963 273,989 346,989 419,989 480,963 531,910 582,859 608,796 608,723 608,648 583,586 532,535 482,483 420,457 346,457 Z"/>
  </g>
  <g id="bullet-char-template-8211" transform="scale(0.00048828125,-0.00048828125)">
   <path d="M -4,459 L 1135,459 1135,606 -4,606 -4,459 Z"/>
  </g>
  <g id="bullet-char-template-61548" transform="scale(0.00048828125,-0.00048828125)">
   <path d="M 173,740 C 173,903 231,1043 346,1159 462,1274 601,1332 765,1332 928,1332 1067,1274 1183,1159 1299,1043 1357,903 1357,740 1357,577 1299,437 1183,322 1067,206 928,148 765,148 601,148 462,206 346,322 231,437 173,577 173,740 Z"/>
  </g>
 </defs>
 <defs class="TextEmbeddedBitmaps"/>
 <g>
  <g id="id2" class="Master_Slide">
   <g id="bg-id2" class="Background"/>
   <g id="bo-id2" class="BackgroundObjects"/>
  </g>
 </g>
 <g class="SlideGroup">
  <g>
   <g id="container-id1">
    <g id="id1" class="Slide" clip-path="url(#presentation_clip_path)">
     <g class="Page">
      <g class="com.sun.star.drawing.ClosedBezierShape">
       <g id="id3">
        <rect class="BoundingBox" stroke="none" fill="none" x="263" y="232" width="25727" height="25789"/>
        <path fill="rgb(0,105,137)" stroke="none" d="M 11570,290 C 6297,953 1917,4791 628,9863 318,11092 263,11591 263,13117 263,14681 312,15118 652,16438 1814,20945 5488,24546 10049,25652 14483,26723 19111,25415 22293,22192 24202,20258 25388,17910 25875,15130 26027,14273 26027,11986 25875,11086 24908,5362 20492,1081 14763,308 14063,217 12251,205 11570,290 Z M 14818,1105 C 19744,1804 23795,5502 24926,10319 25334,12053 25327,14182 24920,15945 23904,20300 20304,23901 15949,24917 14185,25324 12056,25330 10323,24923 5859,23877 2288,20258 1297,15787 1054,14668 999,14017 1036,12704 1072,11329 1218,10490 1632,9255 3067,4943 6868,1768 11375,1111 12148,996 14033,996 14818,1105 Z"/>
       </g>
      </g>
      <g class="com.sun.star.drawing.ClosedBezierShape">
       <g id="id4">
        <rect class="BoundingBox" stroke="none" fill="none" x="6583" y="6260" width="13045" height="13728"/>
        <path fill="rgb(0,105,137)" stroke="none" d="M 12677,6335 C 10834,6682 9162,7977 8383,9656 8018,10435 7878,11055 7848,12052 L 7817,12965 7209,14139 C 6534,15440 6473,15690 6710,16103 6856,16353 7276,16584 7598,16584 L 7829,16584 7829,17532 C 7829,18634 7878,18858 8213,19235 8699,19783 8991,19844 10287,19649 12014,19387 14417,18950 14636,18858 14983,18712 15214,18505 15402,18159 L 15585,17830 15615,16225 15646,14619 15901,14546 C 16534,14357 17081,13865 17398,13189 17568,12831 17586,12721 17586,12265 17574,10884 16570,9875 15220,9875 13189,9875 12094,12186 13365,13786 13602,14084 14107,14418 14490,14534 L 14794,14619 14812,16091 C 14831,17697 14800,17867 14484,18074 14344,18165 11576,18682 9916,18925 9156,19035 9004,19004 8748,18676 8627,18524 8620,18439 8620,17301 8620,16097 8620,16091 8468,15945 8341,15811 8268,15793 7903,15793 7599,15793 7459,15768 7404,15701 7325,15604 7373,15495 8262,13810 L 8620,13135 8620,12319 C 8620,10689 9125,9485 10250,8421 12756,6061 16838,6815 18352,9923 19289,11851 18942,14041 17434,15701 L 17075,16097 17075,17922 C 17075,19668 17081,19753 17196,19868 17354,20026 17586,20026 17744,19868 17859,19753 17865,19668 17865,18068 L 17865,16389 18176,16049 C 18833,15313 19350,14254 19544,13251 19654,12679 19654,11608 19544,11037 19270,9632 18456,8306 17324,7448 16801,7053 15834,6584 15189,6420 14520,6250 13346,6207 12677,6335 Z M 15731,10720 C 16168,10848 16588,11268 16740,11712 17087,12758 16333,13841 15256,13847 14794,13847 14496,13744 14173,13458 13425,12801 13419,11663 14155,11031 14611,10641 15122,10538 15731,10720 Z"/>
       </g>
      </g>
     </g>
    </g>
   </g>
  </g>
 </g>
</svg>